<?xml version="1.0" encoding="iso-8859-1"?>
<!-- Generator: Adobe Illustrator 18.0.0, SVG Export Plug-In . SVG Version: 6.00 Build 0)  -->
<!DOCTYPE svg PUBLIC "-//W3C//DTD SVG 1.1//EN" "http://www.w3.org/Graphics/SVG/1.1/DTD/svg11.dtd">
<svg version="1.1" id="Capa_1" xmlns="http://www.w3.org/2000/svg" xmlns:xlink="http://www.w3.org/1999/xlink" x="0px" y="0px"
	 viewBox="0 0 489.721 489.721" style="enable-background:new 0 0 489.721 489.721;" xml:space="preserve">
<path id="XMLID_530_" d="M429.236,73.152l8.852-8.839c9.631-9.628,9.631-25.253,0-34.879c-9.637-9.635-25.247-9.635-34.877,0
	L7.227,425.407c-9.636,9.627-9.636,25.251,0,34.881c4.816,4.814,11.146,7.225,17.439,7.225c6.324,0,12.624-2.411,17.438-7.225
	l313.524-313.509c63.524,76.55,77.028,180.6,40.34,268.792c-1.898,4.535-0.327,9.773,3.753,12.5
	c4.08,2.739,9.543,2.211,13.006-1.266c0-0.008,0.02-0.016,0.02-0.016C509.595,329.957,515.008,176.438,429.236,73.152z"/>
<g>
</g>
<g>
</g>
<g>
</g>
<g>
</g>
<g>
</g>
<g>
</g>
<g>
</g>
<g>
</g>
<g>
</g>
<g>
</g>
<g>
</g>
<g>
</g>
<g>
</g>
<g>
</g>
<g>
</g>
</svg>
