<svg height="511pt" viewBox="0 -54 511.99926 511" width="511pt" xmlns="http://www.w3.org/2000/svg"><path d="m235.527344 281.390625h41.09375v-184.429687c-6.757813-.691407-13.609375-1.0625-20.546875-1.0625s-13.789063.371093-20.546875 1.0625zm0 0"/><path d="m35.730469 311.414062v91.261719h440.6875v-91.261719zm90.308593 60.753907h-30.132812v-30.132813h30.132812zm58.039063 0h-30.132813v-30.132813h30.132813zm58.042969 0h-30.132813v-30.132813h30.132813zm58.039062 0h-30.132812v-30.132813h30.132812zm58.042969 0h-30.132813v-30.132813h30.132813zm58.039063 0h-30.132813v-30.132813h30.132813zm0 0"/><path d="m75.648438 209.003906c-10.78125 22.167969-17.597657 46.605469-19.515626 72.386719h149.375v-179.023437c-15.726562 4.101562-30.710937 10.0625-44.695312 17.644531-10.683594.183593-21.410156-1.160157-31.933594-4.046875-40.949218-11.230469-71.054687-43.214844-76.695312-81.476563l-5.007813-33.988281-21.535156 26.765625c-10.011719 12.441406-17.242187 26.601563-21.488281 42.09375-16.027344 58.441406 15.734375 118.90625 71.496094 139.644531zm0 0"/><path d="m306.640625 281.390625h149.375c-1.917969-25.796875-8.742187-50.253906-19.539063-72.433594 55.683594-20.785156 87.386719-81.199219 71.371094-139.597656-4.25-15.492187-11.480468-29.65625-21.488281-42.09375l-21.539063-26.765625-5.007812 33.984375c-5.636719 38.265625-35.742188 70.25-76.695312 81.480469-10.46875 2.871094-21.148438 4.21875-31.777344 4.050781-13.984375-7.582031-28.96875-13.546875-44.699219-17.648437zm0 0"/></svg>